<svg xmlns="http://www.w3.org/2000/svg" xmlns:xlink="http://www.w3.org/1999/xlink" width="200" height="201" viewBox="0 0 200 201">
    <defs>
        <linearGradient id="a" x1="50%" x2="50%" y1="0%" y2="100%">
            <stop offset="0%" stop-color="#E0E8FF" stop-opacity="0"/>
            <stop offset="100%" stop-color="#BDCBFF" stop-opacity=".4"/>
        </linearGradient>
        <linearGradient id="c" x1="50%" x2="42.703%" y1="0%" y2="217.466%">
            <stop offset="0%" stop-color="#FFF" stop-opacity=".597"/>
            <stop offset="100%" stop-opacity=".5"/>
        </linearGradient>
        <path id="b" d="M100.106 200.402c18.345 0 35.534-4.936 50.324-13.545V18.541a8.14 8.14 0 0 0-8.141-8.14h-17.08a3.936 3.936 0 0 0-3.782 2.848l-1.636 5.695a3.498 3.498 0 0 1-3.364 2.535h-32.65a3.502 3.502 0 0 1-3.366-2.535l-1.614-5.623a4.032 4.032 0 0 0-3.877-2.92H57.914a8.14 8.14 0 0 0-8.14 8.14v168.311c14.791 8.61 31.983 13.55 50.332 13.55z"/>
    </defs>
    <g fill="none" fill-rule="evenodd">
        <path fill="url(#a)" d="M200 100c0 55.23-44.77 100-100 100S0 155.23 0 100 44.77 0 100 0s100 44.77 100 100z"/>
        <path fill="#C0C5D4" d="M142.72 0H58.525C48.31 0 40 8.31 40 18.524v160.999C56.82 192.366 77.831 200 100.628 200c22.792 0 43.799-7.63 60.617-20.47V18.524C161.245 8.31 152.935 0 142.72 0z"/>
        <path fill="#9E9FAA" d="M60.117 18.524C60.117 8.31 68.427 0 78.639 0H57.896C47.682 0 39.372 8.31 39.372 18.524v160.999a100.034 100.034 0 0 0 20.745 12.2V18.525z"/>
        <g>
            <use fill="#EFF2F9" xlink:href="#b"/>
            <use fill="url(#c)" style="mix-blend-mode:lighten" xlink:href="#b"/>
        </g>
        <path fill="#DCDCE0" d="M60.117 18.524c0-2.911.677-5.668 1.88-8.122h-4.1a8.122 8.122 0 0 0-8.123 8.122v167.95a99.778 99.778 0 0 0 10.343 5.245V18.524z"/>
        <path fill="#FCFCFE" d="M131.903 97.075c0 18.407-14.921 33.327-33.326 33.327S65.25 115.482 65.25 97.075c0-18.405 14.922-33.325 33.327-33.325 18.405 0 33.326 14.92 33.326 33.325z"/>
        <path fill="#FEFEFF" d="M104.948 129.8c-19.897-9.253-31.198-31.588-25.976-53.56a47.353 47.353 0 0 1 2.313-7.138c-9 5.967-14.938 16.184-14.938 27.791 0 18.405 14.921 33.327 33.326 33.327 1.796 0 3.557-.146 5.275-.42z"/>
        <path fill="#5E636B" d="M104.333 14.006h-7.385a3.628 3.628 0 0 1 0-7.254h7.385a3.627 3.627 0 1 1 0 7.254z"/>
        <path fill="#FFF" d="M112.78 169.264H86.437a7.007 7.007 0 0 0 0 14.012h26.345a7.005 7.005 0 0 0 7.005-7.005 7.006 7.006 0 0 0-7.005-7.007z"/>
        <path fill="#9EA7B6" d="M106.615 169.264H86.436a7.006 7.006 0 0 0-7.005 7.007 7.005 7.005 0 0 0 7.005 7.005h20.179a7.007 7.007 0 1 1 0-14.012z"/>
        <g>
            <path fill="#303442" fill-opacity=".223" d="M99 120.94c-15.278 0-28.106-11.503-29.765-26.69a30.368 30.368 0 0 0-.179 3.255c0 16.537 13.407 29.944 29.944 29.944 16.538 0 29.945-13.407 29.945-29.944a30.396 30.396 0 0 0-.18-3.255c-1.659 15.187-14.487 26.69-29.765 26.69z" opacity=".08"/>
            <path fill="#E6E8EE" fill-rule="nonzero" d="M99.968 128.75c-7.773 0-15.22-2.88-20.972-8.111-12.757-11.58-13.716-31.382-2.135-44.141 5.61-6.18 13.292-9.807 21.628-10.21 8.34-.406 16.333 2.464 22.513 8.074 12.76 11.58 13.718 31.383 2.137 44.141a31.306 31.306 0 0 1-23.14 10.247h-.031zm.065-59.896c-.47 0-.943.012-1.417.034-7.643.37-14.684 3.695-19.827 9.36-10.615 11.696-9.737 29.848 1.96 40.464a28.51 28.51 0 0 0 19.22 7.434h.03a28.698 28.698 0 0 0 21.212-9.392c10.617-11.697 9.738-29.849-1.958-40.465-5.314-4.823-12.093-7.435-19.22-7.435z"/>
        </g>
        <g fill="#3561FF">
            <path d="M99.234 68.136c-16.065 0-29.07 13.013-29.07 29.048 0 8.058 3.279 15.327 8.552 20.58.328.328.929.246 1.147-.162 2.487-4.465 6.83-7.977 12.131-9.665a12.916 12.916 0 0 1-5.737-10.753c0-7.16 5.82-12.959 12.977-12.959 7.159 0 12.978 5.799 12.978 12.959a12.88 12.88 0 0 1-5.737 10.753c5.3 1.715 9.644 5.2 12.13 9.665.22.408.82.49 1.148.163a28.889 28.889 0 0 0 8.552-20.581c0-16.035-13.033-29.048-29.07-29.048z"/>
        </g>
    </g>
</svg>
